<?xml version="1.0" encoding="UTF-8" standalone="no"?>
<!DOCTYPE svg PUBLIC "-//W3C//DTD SVG 1.1//EN" "http://www.w3.org/Graphics/SVG/1.1/DTD/svg11.dtd">
<svg xmlns="http://www.w3.org/2000/svg" version="1.1" viewBox="0 0 512 512">
<path fill="#000000" d="
  M 46.09 0.00
  L 63.81 0.11
  L 177.56 0.09
  L 245.06 0.00
  C 271.61 0.34 298.85 0.57 324.73 4.00
  Q 375.17 10.67 408.68 47.24
  C 458.91 102.03 453.55 190.34 395.78 237.79
  A 0.31 0.31 39.6 0 0 395.83 238.30
  C 439.10 261.79 464.28 301.97 465.86 351.23
  C 466.96 385.27 457.57 420.77 437.39 448.50
  C 407.48 489.58 365.72 507.04 314.82 508.95
  C 255.10 511.20 195.25 511.69 135.50 511.79
  L 122.19 512.00
  L 46.19 512.00
  L 46.09 0.00
  Z
  M 281.43 111.08
  C 244.48 109.64 207.28 109.76 170.29 110.06
  A 0.30 0.29 -1.0 0 0 170.00 110.35
  L 170.00 190.70
  A 0.26 0.25 1.2 0 0 170.25 190.95
  C 206.66 191.14 243.64 191.95 279.99 189.64
  C 301.25 188.29 319.14 178.05 321.27 154.81
  C 323.84 126.82 308.92 112.16 281.43 111.08
  Z
  M 337.90 362.69
  C 342.37 336.30 330.96 311.61 303.06 306.17
  C 283.74 302.40 263.07 302.05 241.81 301.90
  Q 206.06 301.64 170.29 301.79
  A 0.29 0.29 0.1 0 0 170.00 302.08
  L 170.00 399.69
  A 0.31 0.30 0.0 0 0 170.31 399.99
  Q 214.16 400.02 258.00 399.77
  Q 283.09 399.62 293.25 398.73
  C 316.71 396.67 333.72 387.42 337.90 362.69
  Z"
/>
</svg>
