<?xml version="1.0" encoding="UTF-8" standalone="no" ?>
<!DOCTYPE svg PUBLIC "-//W3C//DTD SVG 1.1//EN" "http://www.w3.org/Graphics/SVG/1.1/DTD/svg11.dtd">
<svg xmlns="http://www.w3.org/2000/svg" xmlns:xlink="http://www.w3.org/1999/xlink" version="1.1" width="1080" height="1080" viewBox="0 0 1080 1080" xml:space="preserve">
<desc>Created with Fabric.js 5.2.4</desc>
<defs>
</defs>
<rect x="0" y="0" width="100%" height="100%" fill="transparent"></rect>
<g transform="matrix(1 0 0 1 540 540)" id="9cadecbc-4162-489a-b44f-030a6a6939f0"  >
<rect style="stroke: none; stroke-width: 1; stroke-dasharray: none; stroke-linecap: butt; stroke-dashoffset: 0; stroke-linejoin: miter; stroke-miterlimit: 4; fill: rgb(255,255,255); fill-rule: nonzero; opacity: 1; visibility: hidden;" vector-effect="non-scaling-stroke"  x="-540" y="-540" rx="0" ry="0" width="1080" height="1080" />
</g>
<g transform="matrix(1 0 0 1 540 540)" id="a89af03c-f96c-43de-8c7b-612985434fc8"  >
</g>
<g transform="matrix(2.73 0 0 1.81 540 539.84)"  >
<g style="opacity: 1;" vector-effect="non-scaling-stroke"   >
		<g transform="matrix(1 0 0 1 0 0)"  >
<path style="stroke: none; stroke-width: 1; stroke-dasharray: none; stroke-linecap: butt; stroke-dashoffset: 0; stroke-linejoin: miter; stroke-miterlimit: 4; fill: rgb(81,97,249); fill-rule: nonzero; opacity: 1;" vector-effect="non-scaling-stroke"  transform=" translate(-702, -300)" d="M 575 600 L 574 600 L 574 550 L 546 550 L 546 500 L 507 500 L 507 450 L 646 450 L 646 400 L 582 400 L 582 350 L 507 350 L 507 300 L 631 300 L 631 250 L 504 250 L 504 200 L 539 200 L 539 150 L 601 150 L 601 100 L 597 100 L 597 50 L 567 50 L 567 0 L 900 0 L 900 50 L 900 50 L 900 100 L 900 100 L 900 150 L 900 150 L 900 200 L 900 200 L 900 250 L 900 250 L 900 300 L 900 300 L 900 350 L 900 350 L 900 400 L 900 400 L 900 450 L 900 450 L 900 500 L 900 500 L 900 550 L 900 550 L 900 600 L 900 600 Z" stroke-linecap="round" />
</g>
		<g transform="matrix(1 0 0 1 40.5 0)"  >
<path style="stroke: none; stroke-width: 1; stroke-dasharray: none; stroke-linecap: butt; stroke-dashoffset: 0; stroke-linejoin: miter; stroke-miterlimit: 4; fill: rgb(72,87,239); fill-rule: nonzero; opacity: 1;" vector-effect="non-scaling-stroke"  transform=" translate(-742.5, -300)" d="M 667 600 L 694 600 L 694 550 L 626 550 L 626 500 L 631 500 L 631 450 L 709 450 L 709 400 L 748 400 L 748 350 L 611 350 L 611 300 L 601 300 L 601 250 L 739 250 L 739 200 L 681 200 L 681 150 L 640 150 L 640 100 L 735 100 L 735 50 L 585 50 L 585 0 L 900 0 L 900 50 L 900 50 L 900 100 L 900 100 L 900 150 L 900 150 L 900 200 L 900 200 L 900 250 L 900 250 L 900 300 L 900 300 L 900 350 L 900 350 L 900 400 L 900 400 L 900 450 L 900 450 L 900 500 L 900 500 L 900 550 L 900 550 L 900 600 L 900 600 Z" stroke-linecap="round" />
</g>
		<g transform="matrix(1 0 0 1 104.5 0)"  >
<path style="stroke: none; stroke-width: 1; stroke-dasharray: none; stroke-linecap: butt; stroke-dashoffset: 0; stroke-linejoin: miter; stroke-miterlimit: 4; fill: rgb(62,78,230); fill-rule: nonzero; opacity: 1;" vector-effect="non-scaling-stroke"  transform=" translate(-806.5, -300)" d="M 733 600 L 741 600 L 741 550 L 719 550 L 719 500 L 828 500 L 828 450 L 781 450 L 781 400 L 745 400 L 745 350 L 719 350 L 719 300 L 818 300 L 818 250 L 722 250 L 722 200 L 713 200 L 713 150 L 731 150 L 731 100 L 797 100 L 797 50 L 742 50 L 742 0 L 900 0 L 900 50 L 900 50 L 900 100 L 900 100 L 900 150 L 900 150 L 900 200 L 900 200 L 900 250 L 900 250 L 900 300 L 900 300 L 900 350 L 900 350 L 900 400 L 900 400 L 900 450 L 900 450 L 900 500 L 900 500 L 900 550 L 900 550 L 900 600 L 900 600 Z" stroke-linecap="round" />
</g>
</g>
</g>
</svg>