<svg xmlns="http://www.w3.org/2000/svg" xmlns:xlink="http://www.w3.org/1999/xlink" version="1.1" width="1200" height="1200" viewBox="0 0 1200 1200" xml:space="preserve">
<desc>Created with Fabric.js 3.5.0</desc>
<defs>
</defs>
<rect x="0" y="0" width="100%" height="100%" fill="rgba(255,255,255,0)"/>
<g transform="matrix(1 0 0 1 110 110)" id="841873">
<rect style="stroke: none; stroke-width: 1; stroke-dasharray: none; stroke-linecap: butt; stroke-dashoffset: 0; stroke-linejoin: miter; stroke-miterlimit: 4; is-custom-font: none; font-file-url: none; fill: rgb(255,255,255); fill-opacity: 0; fill-rule: nonzero; opacity: 1;" x="-50" y="-50" rx="0" ry="0" width="100" height="100"/>
</g>
<g transform="matrix(1 0 0 1 600 600)" id="9">
<rect style="stroke: none; stroke-width: 1; stroke-dasharray: none; stroke-linecap: butt; stroke-dashoffset: 0; stroke-linejoin: miter; stroke-miterlimit: 4; is-custom-font: none; font-file-url: none; fill: rgb(255,255,255); fill-rule: nonzero; opacity: 1; visibility: hidden;" vector-effect="non-scaling-stroke" x="-540" y="-540" rx="0" ry="0" width="1080" height="1080"/>
</g>
<g transform="matrix(1.5721 0 0 1.1998 598.8115 599.9)" id="visual">
<path style="stroke: none; stroke-width: 1; stroke-dasharray: none; stroke-linecap: butt; stroke-dashoffset: 0; stroke-linejoin: miter; stroke-miterlimit: 4; is-custom-font: none; font-file-url: none; fill: rgb(126,107,248); fill-rule: nonzero; opacity: 1;" transform=" translate(-619, -500)" d="M 363 1000 L 324 1000 L 324 917 L 450 917 L 450 833 L 238 833 L 238 750 L 465 750 L 465 667 L 284 667 L 284 583 L 451 583 L 451 500 L 421 500 L 421 417 L 547 417 L 547 333 L 280 333 L 280 250 L 464 250 L 464 167 L 255 167 L 255 83 L 431 83 L 431 0 L 1000 0 L 1000 83 L 1000 83 L 1000 167 L 1000 167 L 1000 250 L 1000 250 L 1000 333 L 1000 333 L 1000 417 L 1000 417 L 1000 500 L 1000 500 L 1000 583 L 1000 583 L 1000 667 L 1000 667 L 1000 750 L 1000 750 L 1000 833 L 1000 833 L 1000 917 L 1000 917 L 1000 1000 L 1000 1000 Z" stroke-linecap="round"/>
</g>
<g transform="matrix(1.5721 0 0 1.1998 737.1636 599.9)" id="visual">
<path style="stroke: none; stroke-width: 1; stroke-dasharray: none; stroke-linecap: butt; stroke-dashoffset: 0; stroke-linejoin: miter; stroke-miterlimit: 4; is-custom-font: none; font-file-url: none; fill: rgb(112,95,221); fill-rule: nonzero; opacity: 1;" transform=" translate(-707, -500)" d="M 676 1000 L 573 1000 L 573 917 L 549 917 L 549 833 L 440 833 L 440 750 L 414 750 L 414 667 L 583 667 L 583 583 L 579 583 L 579 500 L 511 500 L 511 417 L 591 417 L 591 333 L 593 333 L 593 250 L 478 250 L 478 167 L 623 167 L 623 83 L 642 83 L 642 0 L 1000 0 L 1000 83 L 1000 83 L 1000 167 L 1000 167 L 1000 250 L 1000 250 L 1000 333 L 1000 333 L 1000 417 L 1000 417 L 1000 500 L 1000 500 L 1000 583 L 1000 583 L 1000 667 L 1000 667 L 1000 750 L 1000 750 L 1000 833 L 1000 833 L 1000 917 L 1000 917 L 1000 1000 L 1000 1000 Z" stroke-linecap="round"/>
</g>
<g transform="matrix(1.5721 0 0 1.1998 908.5317 599.9)" id="visual">
<path style="stroke: none; stroke-width: 1; stroke-dasharray: none; stroke-linecap: butt; stroke-dashoffset: 0; stroke-linejoin: miter; stroke-miterlimit: 4; is-custom-font: none; font-file-url: none; fill: rgb(98,84,194); fill-rule: nonzero; opacity: 1;" transform=" translate(-816, -500)" d="M 645 1000 L 815 1000 L 815 917 L 688 917 L 688 833 L 825 833 L 825 750 L 833 750 L 833 667 L 632 667 L 632 583 L 751 583 L 751 500 L 803 500 L 803 417 L 794 417 L 794 333 L 804 333 L 804 250 L 690 250 L 690 167 L 775 167 L 775 83 L 701 83 L 701 0 L 1000 0 L 1000 83 L 1000 83 L 1000 167 L 1000 167 L 1000 250 L 1000 250 L 1000 333 L 1000 333 L 1000 417 L 1000 417 L 1000 500 L 1000 500 L 1000 583 L 1000 583 L 1000 667 L 1000 667 L 1000 750 L 1000 750 L 1000 833 L 1000 833 L 1000 917 L 1000 917 L 1000 1000 L 1000 1000 Z" stroke-linecap="round"/>
</g>
</svg>