<svg xmlns="http://www.w3.org/2000/svg" version="1.1" viewBox="0 0 512 512">
<g stroke-width="2.00" fill="none" stroke-linecap="butt">
<path stroke="#000000" vector-effect="non-scaling-stroke" d="   M 128.18 94.02   C 127.32 100.14 123.54 102.25 117.49 102.36   C 106.59 102.55 92.82 101.23 83.01 103.83   C 68.37 107.71 56.47 119.63 52.73 134.12   Q 51.25 139.85 51.25 154.00   Q 51.24 257.38 51.26 360.76   Q 51.26 372.54 52.73 377.98   C 56.87 393.39 69.73 405.46 85.30 408.62   C 93.36 410.26 104.80 409.43 114.25 409.56   C 123.51 409.70 127.99 410.46 128.00 421.23   Q 128.01 455.72 128.00 490.22   C 128.00 495.09 131.55 495.83 135.17 493.34   Q 194.44 452.66 253.69 411.91   C 256.91 409.69 259.53 409.51 263.25 409.51   Q 338.64 409.51 414.03 409.48   Q 424.08 409.48 429.21 408.09   C 443.82 404.13 455.66 392.18 459.34 377.63   Q 460.75 372.06 460.75 357.75   Q 460.76 254.79 460.74 151.84   Q 460.74 139.43 459.25 133.93   C 455.35 119.46 443.55 107.77 429.16 103.90   Q 423.78 102.46 412.71 102.43   Q 284.43 102.09 156.15 102.30   C 149.79 102.31 145.86 100.39 144.75 93.96" fill="#000000"/>
<path stroke="#000000" vector-effect="non-scaling-stroke" d="   M 272.98 34.12   A 16.98 16.98 0.0 0 0 256.00 17.14   A 16.98 16.98 0.0 0 0 239.02 34.12   A 16.98 16.98 0.0 0 0 256.00 51.10   A 16.98 16.98 0.0 0 0 272.98 34.12" fill="#000000"/>
<path stroke="#000000" vector-effect="non-scaling-stroke" d="   M 263.95 67.32   C 257.19 68.72 253.74 68.00 248.04 67.34   A 0.46 0.45 3.4 0 0 247.53 67.79   L 247.54 84.71   A 0.51 0.50 90.0 0 0 248.04 85.22   L 263.96 85.20   A 0.51 0.51 0.0 0 0 264.47 84.69   L 264.46 67.72   A 0.43 0.41 -5.8 0 0 263.95 67.32" fill="#000000"/>
<path stroke="#000000" vector-effect="non-scaling-stroke" d="   M 33.45 196.34   C 23.70 196.84 17.04 204.60 17.03 214.26   Q 16.98 252.80 17.00 291.35   Q 17.01 301.43 18.57 305.32   Q 22.18 314.30 33.38 315.66   A 0.45 0.44 3.4 0 0 33.88 315.22   Q 34.56 255.96 33.95 196.82   A 0.48 0.48 -1.1 0 0 33.45 196.34" fill="#000000"/>
<path stroke="#000000" vector-effect="non-scaling-stroke" d="   M 478.04 196.74   C 477.95 236.14 477.76 275.53 477.77 314.78   A 1.03 1.03 85.1 0 0 478.98 315.80   Q 490.51 313.83 493.81 304.33   Q 495.07 300.70 494.92 290.99   C 494.55 267.67 495.10 244.29 494.99 220.96   Q 494.94 210.29 493.29 206.37   Q 489.65 197.68 478.54 196.29   A 0.45 0.45 -86.6 0 0 478.04 196.74" fill="#000000"/>
<path stroke="#000000" vector-effect="non-scaling-stroke" d="   M 187.61 221.86   A 42.55 42.55 0.0 0 0 145.06 179.31   A 42.55 42.55 0.0 0 0 102.51 221.86   A 42.55 42.55 0.0 0 0 145.06 264.41   A 42.55 42.55 0.0 0 0 187.61 221.86" fill="#000000"/>
<path stroke="#000000" vector-effect="non-scaling-stroke" d="   M 409.48 221.86   A 42.55 42.55 0.0 0 0 366.93 179.31   A 42.55 42.55 0.0 0 0 324.38 221.86   A 42.55 42.55 0.0 0 0 366.93 264.41   A 42.55 42.55 0.0 0 0 409.48 221.86" fill="#000000"/>
<path stroke="#000000" vector-effect="non-scaling-stroke" d="   M 308.54 284.97   Q 304.15 281.73 300.50 281.66   Q 273.44 281.08 215.10 281.80   C 193.82 282.07 195.70 300.25 196.32 316.18   C 196.93 331.66 206.90 344.89 221.97 348.71   Q 226.15 349.77 235.62 349.75   Q 256.89 349.71 278.17 349.79   C 300.95 349.87 315.30 336.32 315.74 313.39   C 315.95 302.40 317.59 291.66 308.54 284.97" fill="#000000"/>
<path stroke="#000000" vector-effect="non-scaling-stroke" d="   M 170.55 221.86   A 25.50 25.50 0.0 0 0 145.05 196.36   A 25.50 25.50 0.0 0 0 119.55 221.86   A 25.50 25.50 0.0 0 0 145.05 247.36   A 25.50 25.50 0.0 0 0 170.55 221.86" fill="#000000"/>
<path stroke="#000000" vector-effect="non-scaling-stroke" d="   M 392.44 221.86   A 25.50 25.50 0.0 0 0 366.94 196.36   A 25.50 25.50 0.0 0 0 341.44 221.86   A 25.50 25.50 0.0 0 0 366.94 247.36   A 25.50 25.50 0.0 0 0 392.44 221.86" fill="#000000"/>
<path stroke="#000000" vector-effect="non-scaling-stroke" d="   M 213.30 315.80   C 213.58 324.46 220.72 332.73 229.50 332.74   Q 253.74 332.77 277.99 332.74   C 300.72 332.72 298.97 316.65 298.73 299.25   A 0.49 0.49 0.0 0 0 298.24 298.76   L 213.91 298.79   A 0.52 0.51 1.1 0 0 213.39 299.28   Q 213.04 307.73 213.30 315.80" fill="#000000"/>
</g>
<path fill="#262626" d="   M 254.31 0.00   L 257.81 0.00   C 286.57 2.58 299.63 33.54 281.80 56.38   A 1.48 1.33 -28.0 0 0 281.48 57.26   L 281.70 84.76   A 0.51 0.50 0.0 0 0 282.21 85.26   Q 345.20 85.23 408.19 85.26   Q 422.26 85.27 428.13 86.27   C 451.47 90.27 471.02 108.23 476.31 131.69   Q 477.75 138.07 477.75 151.43   Q 477.75 165.06 477.76 178.66   A 0.55 0.55 1.1 0 0 478.29 179.21   C 496.59 179.76 510.63 193.34 512.00 211.81   L 512.00 300.56   C 510.29 318.58 496.77 332.12 478.49 332.76   A 0.73 0.72 89.2 0 0 477.79 333.49   Q 477.75 348.12 477.75 362.87   Q 477.75 373.58 476.42 379.53   C 470.14 407.79 445.57 426.72 416.75 426.74   Q 339.75 426.78 262.73 426.74   A 1.62 1.58 -61.6 0 0 261.83 427.02   Q 203.53 467.13 145.22 507.24   C 133.03 515.63 117.26 512.23 112.22 497.77   Q 110.95 494.14 110.97 488.05   Q 111.05 457.71 110.97 427.28   A 0.51 0.50 90.0 0 0 110.47 426.77   Q 92.53 426.93 88.82 426.48   C 62.40 423.28 40.44 405.11 35.32 378.58   Q 34.24 373.00 34.25 361.36   Q 34.26 347.45 34.24 333.83   A 1.01 1.00 2.5 0 0 33.32 332.83   C 14.61 331.18 1.35 318.78 0.00 299.94   L 0.00 211.69   C 2.22 191.91 14.48 181.25 33.69 179.13   A 0.57 0.56 87.7 0 0 34.19 178.58   Q 34.31 164.92 34.24 151.29   Q 34.18 139.42 35.42 133.31   C 39.95 110.99 57.04 92.65 79.57 87.10   Q 85.75 85.58 97.21 85.27   Q 113.21 84.84 119.69 85.34   Q 127.29 85.92 128.18 94.02   C 127.32 100.14 123.54 102.25 117.49 102.36   C 106.59 102.55 92.82 101.23 83.01 103.83   C 68.37 107.71 56.47 119.63 52.73 134.12   Q 51.25 139.85 51.25 154.00   Q 51.24 257.38 51.26 360.76   Q 51.26 372.54 52.73 377.98   C 56.87 393.39 69.73 405.46 85.30 408.62   C 93.36 410.26 104.80 409.43 114.25 409.56   C 123.51 409.70 127.99 410.46 128.00 421.23   Q 128.01 455.72 128.00 490.22   C 128.00 495.09 131.55 495.83 135.17 493.34   Q 194.44 452.66 253.69 411.91   C 256.91 409.69 259.53 409.51 263.25 409.51   Q 338.64 409.51 414.03 409.48   Q 424.08 409.48 429.21 408.09   C 443.82 404.13 455.66 392.18 459.34 377.63   Q 460.75 372.06 460.75 357.75   Q 460.76 254.79 460.74 151.84   Q 460.74 139.43 459.25 133.93   C 455.35 119.46 443.55 107.77 429.16 103.90   Q 423.78 102.46 412.71 102.43   Q 284.43 102.09 156.15 102.30   C 149.79 102.31 145.86 100.39 144.75 93.96   C 145.96 86.36 150.75 85.25 157.92 85.25   Q 193.40 85.25 229.66 85.25   A 0.84 0.83 90.0 0 0 230.49 84.41   L 230.52 57.30   A 1.50 1.50 27.2 0 0 230.22 56.40   C 212.46 33.27 225.42 2.47 254.31 0.00   Z   M 272.98 34.12   A 16.98 16.98 0.0 0 0 256.00 17.14   A 16.98 16.98 0.0 0 0 239.02 34.12   A 16.98 16.98 0.0 0 0 256.00 51.10   A 16.98 16.98 0.0 0 0 272.98 34.12   Z   M 263.95 67.32   C 257.19 68.72 253.74 68.00 248.04 67.34   A 0.46 0.45 3.4 0 0 247.53 67.79   L 247.54 84.71   A 0.51 0.50 90.0 0 0 248.04 85.22   L 263.96 85.20   A 0.51 0.51 0.0 0 0 264.47 84.69   L 264.46 67.72   A 0.43 0.41 -5.8 0 0 263.95 67.32   Z   M 33.45 196.34   C 23.70 196.84 17.04 204.60 17.03 214.26   Q 16.98 252.80 17.00 291.35   Q 17.01 301.43 18.57 305.32   Q 22.18 314.30 33.38 315.66   A 0.45 0.44 3.4 0 0 33.88 315.22   Q 34.56 255.96 33.95 196.82   A 0.48 0.48 -1.1 0 0 33.45 196.34   Z   M 478.04 196.74   C 477.95 236.14 477.76 275.53 477.77 314.78   A 1.03 1.03 85.1 0 0 478.98 315.80   Q 490.51 313.83 493.81 304.33   Q 495.07 300.70 494.92 290.99   C 494.55 267.67 495.10 244.29 494.99 220.96   Q 494.94 210.29 493.29 206.37   Q 489.65 197.68 478.54 196.29   A 0.45 0.45 -86.6 0 0 478.04 196.74   Z"/>
<circle fill="#5161f9" cx="256.00" cy="34.12" r="16.98"/>
<path fill="#8196ff" d="   M 248.04 67.34   C 253.74 68.00 257.19 68.72 263.95 67.32   A 0.43 0.41 -5.8 0 1 264.46 67.72   L 264.47 84.69   A 0.51 0.51 -0.1 0 1 263.96 85.20   L 248.04 85.22   A 0.51 0.50 90.0 0 1 247.54 84.71   L 247.53 67.79   A 0.46 0.45 3.4 0 1 248.04 67.34   Z"/>
<path fill="#5161f9" d="   M 144.75 93.96   C 145.86 100.39 149.79 102.31 156.15 102.30   Q 284.43 102.09 412.71 102.43   Q 423.78 102.46 429.16 103.90   C 443.55 107.77 455.35 119.46 459.25 133.93   Q 460.74 139.43 460.74 151.84   Q 460.76 254.79 460.75 357.75   Q 460.75 372.06 459.34 377.63   C 455.66 392.18 443.82 404.13 429.21 408.09   Q 424.08 409.48 414.03 409.48   Q 338.64 409.51 263.25 409.51   C 259.53 409.51 256.91 409.69 253.69 411.91   Q 194.44 452.66 135.17 493.34   C 131.55 495.83 128.00 495.09 128.00 490.22   Q 128.01 455.72 128.00 421.23   C 127.99 410.46 123.51 409.70 114.25 409.56   C 104.80 409.43 93.36 410.26 85.30 408.62   C 69.73 405.46 56.87 393.39 52.73 377.98   Q 51.26 372.54 51.26 360.76   Q 51.24 257.38 51.25 154.00   Q 51.25 139.85 52.73 134.12   C 56.47 119.63 68.37 107.71 83.01 103.83   C 92.82 101.23 106.59 102.55 117.49 102.36   C 123.54 102.25 127.32 100.14 128.18 94.02   Q 136.87 93.43 144.75 93.96   Z   M 187.61 221.86   A 42.55 42.55 0.0 0 0 145.06 179.31   A 42.55 42.55 0.0 0 0 102.51 221.86   A 42.55 42.55 0.0 0 0 145.06 264.41   A 42.55 42.55 0.0 0 0 187.61 221.86   Z   M 409.48 221.86   A 42.55 42.55 0.0 0 0 366.93 179.31   A 42.55 42.55 0.0 0 0 324.38 221.86   A 42.55 42.55 0.0 0 0 366.93 264.41   A 42.55 42.55 0.0 0 0 409.48 221.86   Z   M 308.54 284.97   Q 304.15 281.73 300.50 281.66   Q 273.44 281.08 215.10 281.80   C 193.82 282.07 195.70 300.25 196.32 316.18   C 196.93 331.66 206.90 344.89 221.97 348.71   Q 226.15 349.77 235.62 349.75   Q 256.89 349.71 278.17 349.79   C 300.95 349.87 315.30 336.32 315.74 313.39   C 315.95 302.40 317.59 291.66 308.54 284.97   Z"/>
<path fill="#262626" d="   M 187.61 221.86   A 42.55 42.55 0.0 0 1 145.06 264.41   A 42.55 42.55 0.0 0 1 102.51 221.86   A 42.55 42.55 0.0 0 1 145.06 179.31   A 42.55 42.55 0.0 0 1 187.61 221.86   Z   M 170.55 221.86   A 25.50 25.50 0.0 0 0 145.05 196.36   A 25.50 25.50 0.0 0 0 119.55 221.86   A 25.50 25.50 0.0 0 0 145.05 247.36   A 25.50 25.50 0.0 0 0 170.55 221.86   Z"/>
<path fill="#262626" d="   M 409.48 221.86   A 42.55 42.55 0.0 0 1 366.93 264.41   A 42.55 42.55 0.0 0 1 324.38 221.86   A 42.55 42.55 0.0 0 1 366.93 179.31   A 42.55 42.55 0.0 0 1 409.48 221.86   Z   M 392.44 221.86   A 25.50 25.50 0.0 0 0 366.94 196.36   A 25.50 25.50 0.0 0 0 341.44 221.86   A 25.50 25.50 0.0 0 0 366.94 247.36   A 25.50 25.50 0.0 0 0 392.44 221.86   Z"/>
<path fill="#8196ff" d="   M 17.03 214.26   C 17.04 204.60 23.70 196.84 33.45 196.34   A 0.48 0.48 -1.1 0 1 33.95 196.82   Q 34.56 255.96 33.88 315.22   A 0.45 0.44 3.4 0 1 33.38 315.66   Q 22.18 314.30 18.57 305.32   Q 17.01 301.43 17.00 291.35   Q 16.98 252.80 17.03 214.26   Z"/>
<circle fill="#00dcff" cx="145.05" cy="221.86" r="25.50"/>
<circle fill="#00dcff" cx="366.94" cy="221.86" r="25.50"/>
<path fill="#8196ff" d="   M 477.77 314.78   C 477.76 275.53 477.95 236.14 478.04 196.74   A 0.45 0.45 -86.6 0 1 478.54 196.29   Q 489.65 197.68 493.29 206.37   Q 494.94 210.29 494.99 220.96   C 495.10 244.29 494.55 267.67 494.92 290.99   Q 495.07 300.70 493.81 304.33   Q 490.51 313.83 478.98 315.80   A 1.03 1.03 85.1 0 1 477.77 314.78   Z"/>
<path fill="#262626" d="   M 308.54 284.97   C 317.59 291.66 315.95 302.40 315.74 313.39   C 315.30 336.32 300.95 349.87 278.17 349.79   Q 256.89 349.71 235.62 349.75   Q 226.15 349.77 221.97 348.71   C 206.90 344.89 196.93 331.66 196.32 316.18   C 195.70 300.25 193.82 282.07 215.10 281.80   Q 273.44 281.08 300.50 281.66   Q 304.15 281.73 308.54 284.97   Z   M 213.30 315.80   C 213.58 324.46 220.72 332.73 229.50 332.74   Q 253.74 332.77 277.99 332.74   C 300.72 332.72 298.97 316.65 298.73 299.25   A 0.49 0.49 0.0 0 0 298.24 298.76   L 213.91 298.79   A 0.52 0.51 1.1 0 0 213.39 299.28   Q 213.04 307.73 213.30 315.80   Z"/>
<path fill="#8196ff" d="   M 229.50 332.74   C 220.72 332.73 213.58 324.46 213.30 315.80   Q 213.04 307.73 213.39 299.28   A 0.52 0.51 1.1 0 1 213.91 298.79   L 298.24 298.76   A 0.49 0.49 0.0 0 1 298.73 299.25   C 298.97 316.65 300.72 332.72 277.99 332.74   Q 253.74 332.77 229.50 332.74   Z"/>
</svg>