<svg xmlns="http://www.w3.org/2000/svg" version="1.1" viewBox="0 0 512 512">
<g stroke-width="2.00" fill="none" stroke-linecap="butt">
<path stroke="#3e4ee6" vector-effect="non-scaling-stroke" d="   M 336.00 127.96   L 304.00 127.96" fill="#000000"/>
<path stroke="#3e4ee6" vector-effect="non-scaling-stroke" d="   M 405.54 181.50   Q 404.91 245.38 405.43 309.25" fill="#000000"/>
<path stroke="#3e4ee6" vector-effect="non-scaling-stroke" d="   M 106.75 309.25   L 106.70 181.45" fill="#000000"/>
<path stroke="#ffffff" vector-effect="non-scaling-stroke" d="   M 335.87 223.67   A 15.63 15.63 0.0 0 0 320.24 208.04   L 191.74 208.04   A 15.63 15.63 0.0 0 0 176.11 223.67   L 176.11 224.33   A 15.63 15.63 0.0 0 0 191.74 239.96   L 320.24 239.96   A 15.63 15.63 0.0 0 0 335.87 224.33   L 335.87 223.67" fill="#000000"/>
<path stroke="#ffffff" vector-effect="non-scaling-stroke" d="   M 335.88 308.93   A 15.63 15.63 0.0 0 0 320.25 293.30   L 191.75 293.30   A 15.63 15.63 0.0 0 0 176.12 308.93   L 176.12 309.59   A 15.63 15.63 0.0 0 0 191.75 325.22   L 320.25 325.22   A 15.63 15.63 0.0 0 0 335.88 309.59   L 335.88 308.93" fill="#000000"/>
</g>
<path fill="#3e4ee6" d="   M 336.00 127.96   L 304.00 127.96   Q 304.00 87.48 304.00 47.00   Q 304.00 39.97 304.97 37.12   C 309.55 23.53 329.42 23.42 334.74 36.53   Q 335.98 39.61 335.99 46.26   Q 336.01 87.11 336.00 127.96   Z"/>
<path fill="#5161f9" d="   M 304.00 127.96   L 336.00 127.96   C 347.60 128.03 362.23 127.00 371.92 129.10   C 388.49 132.69 401.67 146.35 404.63 163.29   C 405.55 168.55 405.12 175.42 405.54 181.50   Q 404.91 245.38 405.43 309.25   Q 405.16 332.28 405.22 355.32   Q 405.25 368.07 403.84 373.57   C 400.14 387.95 388.44 399.82 373.97 403.78   Q 368.72 405.22 357.75 405.23   Q 305.13 405.28 252.57 405.24   A 2.00 1.98 24.1 0 0 251.26 405.73   Q 224.18 429.21 197.00 452.56   C 188.23 460.09 178.05 456.59 178.02 444.48   Q 177.97 425.12 178.01 405.73   A 0.47 0.46 90.0 0 0 177.55 405.26   C 165.37 405.24 149.59 406.68 138.67 403.89   C 123.77 400.07 111.50 387.93 107.89 372.69   Q 106.80 368.10 106.78 359.09   Q 106.72 334.17 106.75 309.25   L 106.70 181.45   C 106.80 175.96 106.44 169.72 107.13 164.87   C 109.51 147.92 121.85 133.82 138.42 129.46   Q 143.94 128.01 156.82 128.01   Q 230.41 128.02 304.00 127.96   Z   M 335.87 223.67   A 15.63 15.63 0.0 0 0 320.24 208.04   L 191.74 208.04   A 15.63 15.63 0.0 0 0 176.11 223.67   L 176.11 224.33   A 15.63 15.63 0.0 0 0 191.74 239.96   L 320.24 239.96   A 15.63 15.63 0.0 0 0 335.87 224.33   L 335.87 223.67   Z   M 335.88 308.93   A 15.63 15.63 0.0 0 0 320.25 293.30   L 191.75 293.30   A 15.63 15.63 0.0 0 0 176.12 308.93   L 176.12 309.59   A 15.63 15.63 0.0 0 0 191.75 325.22   L 320.25 325.22   A 15.63 15.63 0.0 0 0 335.88 309.59   L 335.88 308.93   Z"/>
<path fill="#3e4ee6" d="   M 106.70 181.45   L 106.75 309.25   C 96.33 309.24 83.84 310.18 74.87 307.94   C 59.88 304.18 47.53 292.01 43.89 276.70   Q 42.79 272.11 42.77 263.09   Q 42.73 247.67 42.74 232.26   Q 42.75 218.21 44.31 212.40   C 48.77 195.87 64.22 183.03 81.07 181.60   Q 90.70 180.78 106.70 181.45   Z"/>
<path fill="#3e4ee6" d="   M 405.43 309.25   Q 404.91 245.38 405.54 181.50   Q 416.80 180.88 428.07 181.48   C 448.16 182.53 463.32 195.20 468.09 214.50   Q 469.32 219.48 469.29 227.60   Q 469.20 247.81 469.26 268.00   C 469.31 285.92 455.47 303.11 437.95 307.76   C 428.82 310.19 416.01 309.29 405.43 309.25   Z"/>
<rect fill="#ffffff" x="176.11" y="208.04" width="159.76" height="31.92" rx="15.63"/>
<rect fill="#ffffff" x="176.12" y="293.30" width="159.76" height="31.92" rx="15.63"/>
</svg>